<svg xmlns="http://www.w3.org/2000/svg" width="142" height="75.361" viewBox="0 0 142 75.361">
  <g id="Group_2" data-name="Group 2" transform="translate(-153 -28.639)">
    <g id="Group_1" data-name="Group 1" transform="translate(-303.063 -360.5)">
      <path id="Path_1" data-name="Path 1" d="M564.42,421.14l-.019,0v0h-.067a6.856,6.856,0,0,1-2.707-.434,2.116,2.116,0,0,1-.688-.446,1.448,1.448,0,0,1-.414-.732,4.161,4.161,0,0,1-.087-.689h0V392.571h0a3.978,3.978,0,0,0-7.881,0h0V417.9c-.017.2-.032.465-.032.794a10.849,10.849,0,0,0,.338,2.692,9.9,9.9,0,0,0,1.09,2.633,9.6,9.6,0,0,0,3.93,3.632,14.087,14.087,0,0,0,6.449,1.37h.1v0a3.939,3.939,0,0,0-.019-7.878Z" transform="translate(-20.998 0)" fill="#c4921d"/>
      <path id="Path_2" data-name="Path 2" d="M537.655,433.124h-.086a6.849,6.849,0,0,1-2.706-.435,2.1,2.1,0,0,1-.689-.445,1.7,1.7,0,0,1-.414-.732,2.755,2.755,0,0,1-.088-.689h0V406.342c.027-.353.042-.71.042-1.071a14.069,14.069,0,0,0-28.136-.153h-.008v15.761h0a3.987,3.987,0,0,0,7.88,0h0V403.116a6.171,6.171,0,0,1,12.342,0v26.766c-.017.2-.033.464-.033.793a10.934,10.934,0,0,0,.338,2.693A9.938,9.938,0,0,0,527.19,436a9.6,9.6,0,0,0,3.931,3.632,14.083,14.083,0,0,0,6.448,1.37h.1a3.939,3.939,0,0,0-.019-7.878Z" transform="translate(-9.494 -0.504)" fill="#c4921d"/>
      <circle id="Ellipse_1" data-name="Ellipse 1" cx="3.94" cy="3.94" r="3.94" transform="translate(506.21 409.527)" fill="#c4921d"/>
      <circle id="Ellipse_2" data-name="Ellipse 2" cx="3.94" cy="3.94" r="3.94" transform="translate(569.877 408.814)" fill="#c4921d"/>
      <path id="Path_3" data-name="Path 3" d="M615.479,404.173a14.069,14.069,0,0,0-28.136.152c0,.361.015.718.042,1.072v24.481h.023a2.81,2.81,0,0,1-.11.689,1.688,1.688,0,0,1-.414.732,2.108,2.108,0,0,1-.688.446,6.844,6.844,0,0,1-2.707.434h-.067v0l-.019,0a3.939,3.939,0,0,0-.019,7.878v0h.1a14.082,14.082,0,0,0,6.448-1.37,9.6,9.6,0,0,0,3.931-3.632,9.931,9.931,0,0,0,1.09-2.633,10.925,10.925,0,0,0,.338-2.693c0-.329-.015-.593-.032-.794V402.171a6.171,6.171,0,0,1,12.342,0v17.762h0a3.987,3.987,0,0,0,7.88,0h0v-15.76Z" transform="translate(-27.598 -0.273)" fill="#c4921d"/>
      <path id="Path_4" data-name="Path 4" d="M486.657,389.592h-.1a14.084,14.084,0,0,0-6.449,1.37,9.6,9.6,0,0,0-3.93,3.632,9.915,9.915,0,0,0-1.091,2.633,10.748,10.748,0,0,0-.331,2.432h-.007v20.133h.023a2.845,2.845,0,0,1-.11.689,1.7,1.7,0,0,1-.414.732,2.107,2.107,0,0,1-.689.446,6.853,6.853,0,0,1-2.707.434h-.067v0l-.019,0a3.939,3.939,0,0,0-.018,7.878v0h.1a14.084,14.084,0,0,0,6.449-1.37,9.6,9.6,0,0,0,3.931-3.632,9.91,9.91,0,0,0,1.091-2.633,10.93,10.93,0,0,0,.338-2.693c0-.329-.016-.593-.032-.794V400.063h0v0l0-.137v0a3.035,3.035,0,0,1,.119-.835,1.7,1.7,0,0,1,.414-.732,2.115,2.115,0,0,1,.689-.445,6.85,6.85,0,0,1,2.707-.435h.067v0l.019,0a3.939,3.939,0,0,0,.018-7.878Z" transform="translate(0 -0.111)" fill="#c4921d"/>
    </g>
    <text id="Modern_Thai_Kitchen" data-name="Modern Thai Kitchen" transform="translate(224 101)" fill="#c4921d" font-size="16" font-family="MarketPro, Market Pro" letter-spacing="0.095em"><tspan x="-70.672" y="0">Modern Thai Kitchen</tspan></text>
  </g>
</svg>
